PathFileType	4	(X/Y/Z)	 s10c0402.trc
DataRate	CameraRate	NumFrames	NumMarkers	Units	OrigDataRate	OrigDataStartFrame	OrigNumFrames
200	200	4	49	mm	200	1751	2000
Frame#	Time	racr			lacr			c7			jug			rlel			rdr			llel			ldr			s2			lic			ric			lasi			rasi			rpsi			lpsi			rgt			lgt			rth1			rth2			rth3			rth4			rlfc			rmfc			rsh1			rsh2			rsh3			rsh4			rlmal			rmmal			rcal			rtoe			rmt5			lth1			lth2			lth4			lth3			llfc			lmfc			llmal			lcal			lmt5			lsh1			lsh2			lsh3			lsh4			ltoe			SBIKE			LBIKE			RBIKE			
		X1	Y1	Z1	X2	Y2	Z2	X3	Y3	Z3	X4	Y4	Z4	X5	Y5	Z5	X6	Y6	Z6	X7	Y7	Z7	X8	Y8	Z8	X9	Y9	Z9	X10	Y10	Z10	X11	Y11	Z11	X12	Y12	Z12	X13	Y13	Z13	X14	Y14	Z14	X15	Y15	Z15	X16	Y16	Z16	X17	Y17	Z17	X18	Y18	Z18	X19	Y19	Z19	X20	Y20	Z20	X21	Y21	Z21	X22	Y22	Z22	X23	Y23	Z23	X24	Y24	Z24	X25	Y25	Z25	X26	Y26	Z26	X27	Y27	Z27	X28	Y28	Z28	X29	Y29	Z29	X30	Y30	Z30	X31	Y31	Z31	X32	Y32	Z32	X33	Y33	Z33	X34	Y34	Z34	X35	Y35	Z35	X36	Y36	Z36	X37	Y37	Z37	X38	Y38	Z38	X39	Y39	Z39	X40	Y40	Z40	X41	Y41	Z41	X42	Y42	Z42	X43	Y43	Z43	X44	Y44	Z44	X45	Y45	Z45	X46	Y46	Z46	X47	Y47	Z47	X48	Y48	Z48	X49	Y49	Z49	
1751	8.7550	691.104761	1340.128972	-50.841119	706.673745	1305.888672	-338.170461	682.364550	1341.084769	-193.904375	668.441739	1194.162149	-186.238576	571.465399	1107.511941	65.617976	628.212721	906.737292	2.833225	566.938272	1092.342960	-488.433323	643.567292	910.262650	-394.915844	142.348378	1161.826734	-194.306723	297.563451	1158.574669	-347.383622	326.849279	1157.020598	-48.537932	310.992942	1072.110834	-317.043079	317.647177	1063.485686	-62.415945	195.374856	1207.092056	-140.424719	193.320861	1218.917064	-249.946273	209.852820	1050.604825	-8.844412	187.703512	1042.659599	-387.075735	271.853340	904.997044	3.994151	327.358565	838.092424	-16.019173	342.371599	754.505034	-23.108351	358.726263	855.949067	-25.732955	378.792834	651.674747	-45.294138	368.824246	649.023024	-160.570299	277.064793	597.499497	-9.708385	223.712094	527.925275	-24.506536	144.396298	493.780927	-27.314935	242.767613	508.656771	-51.570696	56.933398	429.124789	-42.455284	82.925801	425.413397	-123.458332	25.700487	473.890108	-91.043208	73.870348	233.697049	-99.926779	25.702750	303.446139	-37.803288	270.462092	937.029033	-399.177997	348.837040	901.781018	-384.359961	370.314492	929.847952	-374.332306	400.087312	829.966274	-378.419494	489.989102	753.785497	-351.991671	484.889510	745.771654	-233.934309	272.808435	429.564641	-373.615241	206.537567	408.220537	-334.256967	362.725974	317.045116	-382.563353	412.482352	659.119949	-388.933721	391.699313	574.216827	-380.699686	328.970577	511.073363	-384.971738	414.901609	562.824300	-352.774076	444.617433	324.853158	-319.034733	-167.876843	823.946243	-218.897017	-78.174464	81.791854	-423.590432	-102.658984	80.630306	-24.423877	
1752	8.7600	692.054105	1340.234763	-50.242386	706.000616	1306.036207	-336.974717	682.264952	1341.068504	-193.534042	667.667976	1193.738380	-183.633705	572.769557	1107.446407	66.023423	628.252028	906.818244	2.917672	566.655099	1092.607436	-487.520612	643.545295	910.276902	-394.815031	142.773140	1161.690984	-195.423529	299.096833	1157.960054	-348.132099	325.052677	1158.169169	-48.666957	312.263532	1071.681848	-317.516271	316.625904	1064.067501	-63.395547	194.651590	1206.968661	-142.364351	194.015378	1218.706032	-252.071860	209.596051	1050.924206	-11.261597	187.818521	1042.280870	-388.255420	273.200465	906.903834	3.026937	330.496717	841.118623	-15.832268	346.584582	757.577634	-24.031188	361.145806	859.092865	-25.442282	385.733481	656.176907	-44.881260	376.152285	654.980277	-160.742478	284.535020	602.309347	-9.870998	229.808250	533.821650	-24.764375	149.839710	501.173991	-27.347902	249.297195	514.771671	-51.513231	60.879297	438.399614	-42.232932	86.823804	433.748458	-123.580727	30.979589	483.868472	-91.039182	73.098327	242.613320	-99.806908	26.569272	313.427277	-37.770741	268.953932	934.662312	-400.591012	345.864258	896.519034	-385.826169	368.420177	923.689714	-375.304943	394.366570	822.769627	-379.595430	481.339104	742.246392	-353.266865	477.435486	734.182641	-235.904991	269.148591	415.615859	-373.324175	202.982237	394.039085	-334.939477	361.318717	306.148685	-382.772554	405.418207	646.068422	-389.997445	385.780703	561.126482	-380.746879	324.541159	496.491479	-384.055444	408.830367	550.462804	-352.390263	443.083954	315.979249	-319.184731	-167.819190	823.956704	-218.878275	-77.873124	81.871587	-423.518388	-102.640222	80.618203	-24.433202	
1753	8.7650	692.869530	1340.410439	-49.665934	705.260035	1306.256160	-335.929803	682.092735	1341.130861	-193.121111	666.698730	1193.381008	-180.980660	573.954957	1107.520217	66.623762	627.756366	906.815389	2.107514	566.400212	1092.970795	-486.602821	643.457901	910.255343	-394.707036	143.091685	1161.471699	-196.933513	300.767599	1157.096795	-348.625246	323.406789	1159.005741	-48.974896	313.598276	1071.160030	-318.254230	315.557346	1064.492750	-64.491316	194.052246	1207.114256	-144.943790	194.599230	1218.401133	-254.345646	209.308861	1051.196749	-13.062976	188.201490	1041.426572	-389.475937	274.558763	908.652580	2.073787	333.189075	843.775742	-15.894148	350.725336	760.552854	-24.135235	364.815583	863.393138	-23.567849	392.573851	660.645043	-44.424577	382.660904	660.431745	-161.080801	291.548349	607.200564	-9.907315	235.815684	539.529254	-24.848491	155.274516	508.282488	-27.333314	253.843867	520.081080	-52.417939	64.839275	447.532138	-41.935062	90.421932	442.351151	-123.980990	36.110881	493.736232	-90.902907	73.106794	251.684335	-99.699130	27.999098	323.465330	-37.633319	267.523000	931.915477	-401.803525	342.848472	890.838670	-386.829049	366.463405	917.119334	-376.246504	388.379613	815.307009	-380.590347	472.325610	730.314777	-353.913949	469.809731	722.458645	-237.882264	265.136195	402.139856	-373.333855	199.126988	379.761451	-334.798950	359.303643	295.247541	-382.953498	397.905170	632.943689	-390.827191	379.424382	547.847612	-380.489561	319.277867	482.234468	-383.838491	402.250943	537.999110	-351.709618	440.886646	307.249799	-319.522682	-167.849663	823.908053	-219.026466	-78.169367	81.999815	-423.862328	-102.627831	80.624457	-24.419281	
1754	8.7700	693.687670	1340.682597	-48.983228	704.537013	1306.589027	-334.978109	681.743919	1341.152056	-191.884014	667.261328	1192.785598	-177.465003	575.351695	1107.389787	66.985016	627.738946	906.876144	2.010538	566.127463	1093.196781	-485.529800	643.337267	910.187934	-394.585494	143.231963	1161.531187	-200.013216	302.584259	1155.878245	-349.124740	321.873158	1159.457453	-49.451680	315.045683	1070.132955	-319.062779	312.591900	1063.250852	-71.062419	193.577593	1206.931503	-147.509798	195.343946	1218.154514	-256.876710	209.136745	1051.244380	-14.859051	188.414846	1040.366335	-390.593262	275.783410	910.271044	1.215695	335.723430	846.314181	-15.759001	354.611330	763.366121	-24.034492	366.840828	866.059943	-23.122246	399.253042	665.036776	-43.789888	388.853707	665.517847	-161.349345	298.532857	611.885683	-9.954436	241.758497	545.648288	-24.938508	160.128283	515.438571	-27.719567	259.159953	525.841163	-52.820716	68.870636	457.070586	-41.609940	94.089358	451.095294	-123.851303	41.704490	503.796856	-90.857667	73.896254	261.006282	-99.713669	30.070199	333.575881	-37.556944	266.157655	928.953159	-403.010669	339.757664	884.909975	-387.851045	364.333650	910.098166	-377.203178	382.273264	807.560981	-381.512876	462.703865	718.386627	-354.594845	461.196214	710.369835	-240.166417	260.766454	389.061972	-373.257565	194.876083	365.913060	-334.737902	356.716791	284.469591	-383.110330	389.917603	619.651868	-391.162270	372.525884	534.518787	-379.952523	313.149412	468.531965	-384.224778	395.175100	525.410652	-350.761410	438.106537	298.141833	-319.742196	-167.820507	823.921976	-218.989332	-78.177090	81.824551	-423.668700	-102.622889	80.603757	-24.432750	
